<svg xmlns="http://www.w3.org/2000/svg" width="35.595741mm" height="35.604095mm" viewBox="0 0 35.595741 35.604095" version="1.1">
  <g transform="translate(-73.435521,-69.393002)">
    <path d="m 92.418227,69.406274 c -0.48356,0.13202 0.53959,0.40244 0.92141,0.53452 0.50895,0.17604 1.08458,0.17745 1.46192,0.003 0.25285,-0.11685 0.20396,-0.16408 -0.28267,-0.2721 -1.25071,-0.19647 -1.54858,-0.32084 -2.10066,-0.26548 z m -3.04321,0.38776 c -0.18849,-8.5e-4 -0.39694,0.0641 -0.58084,0.20668 -0.20958,0.16249 -0.47683,0.52059 -0.59428,0.79553 -0.36816,0.86181 -0.74225,2.3889 -0.6904,2.8183 0.0434,0.35977 0.12454,0.29157 0.64131,-0.54299 0.32721,-0.52844 0.75798,-1.00515 0.96428,-1.06642 1.43152,-0.42514 3.14302,1.4945 3.53053,3.95993 0.20573,1.30891 -0.64093,1.59872 -2.27789,0.77963 -1.51786,-0.7595 -1.81875,-0.82942 -2.22209,-0.5167 -0.87476,0.67822 -0.15454,1.71671 2.15439,3.1063 3.7985,2.28607 3.81659,2.30426 4.44727,4.44728 0.27231,0.92528 0.27586,1.05293 0.0527,1.84788 -0.23072,0.82194 -0.27264,0.86504 -1.12964,1.14957 -0.48965,0.16257 -0.97904,0.29535 -1.08728,0.29535 -0.10824,0 -0.37126,0.16233 -0.58446,0.36077 -0.47392,0.44111 -0.45051,0.45348 -2.79311,-1.50362 -1.65334,-1.38127 -2.64632,-2.41146 -2.6479,-2.74798 -3.7e-4,-0.0834 0.23838,-0.49643 0.5302,-0.91782 0.29182,-0.4214 0.60227,-0.98942 0.68988,-1.2621 0.15289,-0.47581 0.13921,-0.49625 -0.33796,-0.49712 -0.79313,-0.002 -1.62469,-0.34468 -1.87999,-0.77597 -0.31367,-0.52991 -0.29874,-0.63505 0.1111,-0.78208 0.39512,-0.14174 1.19459,-1.09033 1.19373,-1.41618 -3.7e-4,-0.11921 -0.13896,-0.48605 -0.30851,-0.8151 l -0.30851,-0.59802 -0.84697,0.75701 c -1.00645,0.89914 -1.08252,1.369 -0.40153,2.48137 0.66454,1.0855 1.19983,1.51524 1.88722,1.51524 0.79298,0 0.76857,0.30424 -0.0982,1.23763 -0.38152,0.41086 -0.69349,0.86572 -0.69349,1.01016 0,0.14444 0.26031,0.49722 0.57826,0.78391 0.31794,0.28669 0.93743,0.90607 1.37666,1.37644 0.43922,0.47037 1.41025,1.34565 2.158,1.94511 0.74776,0.59945 1.72222,1.52906 2.16525,2.06618 l 0.80512,0.97653 -0.36742,0.93922 c -0.38282,0.97772 -0.48634,1.05644 -1.62884,1.24252 -1.4596,0.23774 -2.26106,0.52202 -2.97967,1.05725 -1.51035,1.12491 -4.68066,1.82766 -5.45523,0.25431 -0.23448,-0.47628 -0.64776,-1.39876 -1.52045,-2.93309 -0.87269,-1.53432 -0.62117,-3.37838 -0.70844,-3.7502 -0.2765,-1.178 1.05068,-0.76045 1.45659,-1.70896 0.74887,-1.7499 1.16165,-3.52818 1.16685,-5.02573 0.004,-1.15485 -0.39716,-3.52626 -0.62476,-3.6927 -0.17743,-0.12976 -0.19174,-0.29696 0.14572,1.76105 0.26884,1.63947 0.28405,3.52731 0.0295,3.7135 -0.0579,0.0424 -0.30165,-0.637 -0.54105,-1.50913 -0.35588,-1.29642 -1.50187,-4.4624 -1.72393,-4.76218 -0.031,-0.0418 -0.0974,-0.0278 -0.14728,0.0312 -0.0499,0.059 0.19649,0.86128 0.54726,1.78306 0.35076,0.92179 0.74031,2.18028 0.86609,2.79629 0.12578,0.61601 0.29623,1.26215 0.37827,1.43636 0.19349,0.41072 0.19385,1.78123 5.1e-4,1.78123 -0.18984,0 -0.35021,-0.37321 -0.74363,-1.73293 -0.40817,-1.41069 -1.64118,-4.03984 -2.39314,-5.10277 -0.75464,-1.06671 -0.51909,-1.64745 -1.10371,-1.41004 -0.41349,0.17798 -0.66526,0.61366 -0.90196,0.8828 -3.89477,5.82572 -3.45403,9.79725 -3.49115,11.65653 -0.17969,9.90232 9.45815,17.012966 17.23905,17.020666 4.04584,0.0114 6.54596,-0.88321 9.0498,-2.21209 2.998573,-1.63448 5.888903,-4.409296 7.136943,-6.479096 2.01111,-3.33533 2.36128,-6.99598 2.08487,-11.09202 -0.15361,-2.27635 -0.8687,-3.60235 -1.44489,-5.17433 -1.95439,-4.64007 -5.38057,-7.64957 -9.470303,-9.30225 l 0.90632,0.98238 c 0.57478,0.7099 0.54783,1.3811 -0.0677,1.68279 -0.40627,0.19912 -0.55342,0.19092 -0.96325,-0.0538 -0.26611,-0.15891 -0.65723,-0.33377 -0.8692,-0.38829 -0.21196,-0.0545 -0.79309,-0.38963 -1.29087,-0.74478 -0.6959,-0.4965 -1.0729,-0.64572 -1.63143,-0.64572 -0.39952,0 -0.77228,-0.0541 -0.82837,-0.12046 -0.0561,-0.0664 -0.52424,-0.12809 -1.04076,-0.13697 -0.82473,-0.0142 -0.98365,-0.0774 -1.3038,-0.51792 -0.36814,-0.50654 -0.68781,-0.65484 -0.68781,-0.31919 0,0.10032 -0.0692,0.18283 -0.154,0.18283 -0.0848,0 -0.15399,-0.16265 -0.15399,-0.36138 0,-0.31611 -0.25945,-0.50123 -0.57361,-0.50264 z m -10.99519,7.20525 c 0.132,0.0336 0.31435,0.25175 0.69039,0.75517 0.83497,1.1178 1.92729,3.56469 2.3766,5.32352 0.18417,0.72092 0.30946,1.50077 0.27854,1.73292 -0.0466,0.34956 -0.18754,0.17575 -0.82114,-1.01199 -0.4208,-0.78884 -1.30002,-2.34854 -1.95337,-3.46585 -1.2367,-2.11493 -1.33982,-2.53791 -0.78548,-3.21698 0.074,-0.0906 0.13526,-0.13699 0.21446,-0.11679 z m 10.29549,-0.43498 c 0.0681,0.004 0.13853,0.0734 0.25425,0.21035 0.20007,0.23673 0.21861,0.36337 0.0806,0.56011 -0.22937,0.32703 -0.36487,0.32106 -0.60978,-0.0281 -0.16314,-0.2326 -0.15673,-0.33247 0.0362,-0.56073 0.10495,-0.12418 0.17064,-0.18554 0.23874,-0.18161 z"/>
  </g>
</svg>
